# xmcd
#
# Track frame offsets:
# 150
# 17593
# 36670
# 53453
# 74959
# 88161
# 107378
# 126196
#
# Disc length: 2114 seconds
#
#
# Revision: 0
# Processed by: cddbd v1.5.1PL2 Copyright (c) Steve Scherf et al.
# Submitted via: FreeRIP 2.35 
#
DISCID=6c084008
DTITLE=David Samuel Project - DSP
DYEAR=2006
DGENRE=Blues
TTITLE0=Ashur
TTITLE1=Anything But Down
TTITLE2=Feels Real Good
TTITLE3=Ingram House
TTITLE4=Take Time
TTITLE5=Unbeware
TTITLE6=Vision Of Love
TTITLE7=Behind The Sun
EXTD=
EXTT0=
EXTT1=
EXTT2=
EXTT3=
EXTT4=
EXTT5=
EXTT6=
EXTT7=
PLAYORDER=
